HIERARCHY
ROOT Hips
{
	OFFSET 0.000000 83.214638 0.000000
	CHANNELS 6 Xposition Yposition Zposition Xrotation Yrotation Zrotation
	JOINT Pelvis
	{
		OFFSET 0.000000 0.000000 0.000000
		CHANNELS 3 Xrotation Yrotation Zrotation
		JOINT LeftUpLeg
		{
			OFFSET 8.479700 -4.795502 -0.379100
			CHANNELS 3 Xrotation Yrotation Zrotation
			JOINT LeftLeg
			{
				OFFSET 0.024144 -32.555107 0.112900
				CHANNELS 3 Xrotation Yrotation Zrotation
				JOINT LeftFoot
				{
					OFFSET -0.024144 -32.638630 -3.012600
					CHANNELS 3 Xrotation Yrotation Zrotation
					JOINT LeftToeBase
					{
						OFFSET 0.970200 -13.225400 11.864200
						CHANNELS 3 Xrotation Yrotation Zrotation
						End Site
						{
							OFFSET 0.000000 12.319262 0.000000
						}
					}
					JOINT LFootTongue
					{
						OFFSET 1.142400 -1.059800 6.665200
						CHANNELS 3 Xrotation Yrotation Zrotation
						End Site
						{
							OFFSET 0.000000 12.319262 0.000000
						}
					}
				}
				JOINT LeftPantLeg
				{
					OFFSET 0.918482 -16.533964 -2.284700
					CHANNELS 3 Xrotation Yrotation Zrotation
					End Site
					{
						OFFSET 0.350399 24.744368 0.000000
					}
				}
			}
		}
		JOINT RightUpLeg
		{
			OFFSET -8.479700 -4.795502 -0.379100
			CHANNELS 3 Xrotation Yrotation Zrotation
			JOINT RightLeg
			{
				OFFSET -0.023144 -32.555092 0.112900
				CHANNELS 3 Xrotation Yrotation Zrotation
				JOINT RightFoot
				{
					OFFSET 0.023144 -32.638641 -3.012700
					CHANNELS 3 Xrotation Yrotation Zrotation
					JOINT RightToeBase
					{
						OFFSET -0.970200 -13.225400 11.864200
						CHANNELS 3 Xrotation Yrotation Zrotation
						End Site
						{
							OFFSET 0.000000 12.319244 0.000000
						}
					}
					JOINT RFootTongue
					{
						OFFSET -1.142200 -1.059800 6.665200
						CHANNELS 3 Xrotation Yrotation Zrotation
						End Site
						{
							OFFSET 0.000000 12.319243 0.000000
						}
					}
				}
				JOINT RightPantLeg
				{
					OFFSET -0.919482 -16.533978 -2.284800
					CHANNELS 3 Xrotation Yrotation Zrotation
					End Site
					{
						OFFSET -0.350400 24.744419 0.000000
					}
				}
			}
		}
	}
	JOINT Spine
	{
		OFFSET 0.000000 7.722000 1.166200
		CHANNELS 3 Xrotation Yrotation Zrotation
		JOINT Spine1
		{
			OFFSET 0.000000 12.024101 0.248800
			CHANNELS 3 Xrotation Yrotation Zrotation
			JOINT Spine2
			{
				OFFSET 0.000000 11.502998 -0.491200
				CHANNELS 3 Xrotation Yrotation Zrotation
				JOINT Neck
				{
					OFFSET 0.000000 18.430702 -3.123100
					CHANNELS 3 Xrotation Yrotation Zrotation
					JOINT Head
					{
						OFFSET 0.000000 9.051102 1.034000
						CHANNELS 3 Xrotation Yrotation Zrotation
						JOINT HairB
						{
							OFFSET 0.208400 24.786102 24.822300
							CHANNELS 3 Xrotation Yrotation Zrotation
							End Site
							{
								OFFSET 0.000000 32.263779 0.000000
							}
						}
						JOINT HairA
						{
							OFFSET -7.081100 24.428299 23.196600
							CHANNELS 3 Xrotation Yrotation Zrotation
							End Site
							{
								OFFSET 0.000000 32.263779 0.000000
							}
						}
						JOINT Hat
						{
							OFFSET 16.728800 15.048294 -15.439601
							CHANNELS 3 Xrotation Yrotation Zrotation
							End Site
							{
								OFFSET 0.000000 32.263779 0.000000
							}
						}
					}
				}
				JOINT LeftShoulder
				{
					OFFSET 6.197800 13.665199 -4.064700
					CHANNELS 3 Xrotation Yrotation Zrotation
					JOINT LeftArm
					{
						OFFSET 7.778100 -0.187103 -1.709300
						CHANNELS 3 Xrotation Yrotation Zrotation
						JOINT LeftForeArm
						{
							OFFSET 22.049376 0.000000 0.000000
							CHANNELS 3 Xrotation Yrotation Zrotation
							JOINT LeftHand
							{
								OFFSET 23.009392 0.000000 0.000000
								CHANNELS 3 Xrotation Yrotation Zrotation
								JOINT LeftHandThumb1
								{
									OFFSET 3.507191 -2.063065 3.133727
									CHANNELS 3 Xrotation Yrotation Zrotation
									JOINT LeftHandThumb2
									{
										OFFSET 3.101337 -1.790558 1.790558
										CHANNELS 3 Xrotation Yrotation Zrotation
										JOINT LeftHandThumb3
										{
											OFFSET 3.058640 -1.765907 1.765906
											CHANNELS 3 Xrotation Yrotation Zrotation
											End Site
											{
												OFFSET -0.415260 3.926476 -0.049563
											}
										}
									}
								}
								JOINT LeftHandIndex1
								{
									OFFSET 11.334419 -0.901459 3.706815
									CHANNELS 3 Xrotation Yrotation Zrotation
									JOINT LeftHandIndex2
									{
										OFFSET 3.283112 0.000000 0.000000
										CHANNELS 3 Xrotation Yrotation Zrotation
										JOINT LeftHandIndex3
										{
											OFFSET 3.323853 0.000000 0.000000
											CHANNELS 3 Xrotation Yrotation Zrotation
											End Site
											{
												OFFSET -1.135597 3.097809 0.402452
											}
										}
									}
								}
								JOINT LeftHandMiddle1
								{
									OFFSET 11.335861 0.000000 0.000000
									CHANNELS 3 Xrotation Yrotation Zrotation
									JOINT LeftHandMiddle2
									{
										OFFSET 3.410492 0.000000 0.000000
										CHANNELS 3 Xrotation Yrotation Zrotation
										JOINT LeftHandMiddle3
										{
											OFFSET 3.312172 0.000000 0.000000
											CHANNELS 3 Xrotation Yrotation Zrotation
											End Site
											{
												OFFSET -1.150200 3.080154 0.400270
											}
										}
									}
								}
								JOINT LeftHandRing1
								{
									OFFSET 11.514786 -0.013176 -3.003090
									CHANNELS 3 Xrotation Yrotation Zrotation
									JOINT LeftHandRing2
									{
										OFFSET 3.053307 0.000000 0.000000
										CHANNELS 3 Xrotation Yrotation Zrotation
										JOINT LeftHandRing3
										{
											OFFSET 3.295807 0.000000 0.000000
											CHANNELS 3 Xrotation Yrotation Zrotation
											End Site
											{
												OFFSET -1.281006 3.013344 0.375733
											}
										}
									}
								}
								JOINT LeftHandPinky1
								{
									OFFSET 10.518692 -0.960396 -5.730441
									CHANNELS 3 Xrotation Yrotation Zrotation
									JOINT LeftHandPinky2
									{
										OFFSET 2.861649 0.000000 0.000000
										CHANNELS 3 Xrotation Yrotation Zrotation
										JOINT LeftHandPinky3
										{
											OFFSET 2.863380 0.000000 0.000000
											CHANNELS 3 Xrotation Yrotation Zrotation
											End Site
											{
												OFFSET -0.843597 2.711159 0.369971
											}
										}
									}
								}
							}
							JOINT LSleeve
							{
								OFFSET 6.676277 -0.344902 -1.011730
								CHANNELS 3 Xrotation Yrotation Zrotation
								End Site
								{
									OFFSET 0.000000 14.885353 0.000000
								}
							}
						}
					}
				}
				JOINT RightShoulder
				{
					OFFSET -6.197800 13.665199 -4.064700
					CHANNELS 3 Xrotation Yrotation Zrotation
					JOINT RightArm
					{
						OFFSET -7.778100 -0.187103 -1.709300
						CHANNELS 3 Xrotation Yrotation Zrotation
						JOINT RightForeArm
						{
							OFFSET -22.049376 0.000000 0.000000
							CHANNELS 3 Xrotation Yrotation Zrotation
							JOINT RightHand
							{
								OFFSET -23.009392 0.000000 0.000000
								CHANNELS 3 Xrotation Yrotation Zrotation
								JOINT RightHandThumb1
								{
									OFFSET -3.507191 -2.063065 3.133727
									CHANNELS 3 Xrotation Yrotation Zrotation
									JOINT RightHandThumb2
									{
										OFFSET -3.101337 -1.790558 1.790558
										CHANNELS 3 Xrotation Yrotation Zrotation
										JOINT RightHandThumb3
										{
											OFFSET -3.058640 -1.765907 1.765906
											CHANNELS 3 Xrotation Yrotation Zrotation
											End Site
											{
												OFFSET 0.415260 3.926476 -0.049563
											}
										}
									}
								}
								JOINT RightHandIndex1
								{
									OFFSET -11.334419 -0.901459 3.706815
									CHANNELS 3 Xrotation Yrotation Zrotation
									JOINT RightHandIndex2
									{
										OFFSET -3.283112 0.000000 0.000000
										CHANNELS 3 Xrotation Yrotation Zrotation
										JOINT RightHandIndex3
										{
											OFFSET -3.323853 0.000000 0.000000
											CHANNELS 3 Xrotation Yrotation Zrotation
											End Site
											{
												OFFSET 1.135597 3.097809 0.402452
											}
										}
									}
								}
								JOINT RightHandMiddle1
								{
									OFFSET -11.335861 0.000000 0.000000
									CHANNELS 3 Xrotation Yrotation Zrotation
									JOINT RightHandMiddle2
									{
										OFFSET -3.410492 0.000000 0.000000
										CHANNELS 3 Xrotation Yrotation Zrotation
										JOINT RightHandMiddle3
										{
											OFFSET -3.312172 0.000000 0.000000
											CHANNELS 3 Xrotation Yrotation Zrotation
											End Site
											{
												OFFSET 1.150200 3.080154 0.400270
											}
										}
									}
								}
								JOINT RightHandRing1
								{
									OFFSET -11.514786 -0.013176 -3.003090
									CHANNELS 3 Xrotation Yrotation Zrotation
									JOINT RightHandRing2
									{
										OFFSET -3.053307 0.000000 0.000000
										CHANNELS 3 Xrotation Yrotation Zrotation
										JOINT RightHandRing3
										{
											OFFSET -3.295807 0.000000 0.000000
											CHANNELS 3 Xrotation Yrotation Zrotation
											End Site
											{
												OFFSET 1.281006 3.013344 0.375733
											}
										}
									}
								}
								JOINT RightHandPinky1
								{
									OFFSET -10.518692 -0.960396 -5.730441
									CHANNELS 3 Xrotation Yrotation Zrotation
									JOINT RightHandPinky2
									{
										OFFSET -2.861649 0.000000 0.000000
										CHANNELS 3 Xrotation Yrotation Zrotation
										JOINT RightHandPinky3
										{
											OFFSET -2.863380 0.000000 0.000000
											CHANNELS 3 Xrotation Yrotation Zrotation
											End Site
											{
												OFFSET 0.843597 2.711159 0.369971
											}
										}
									}
								}
							}
							JOINT RSleeve
							{
								OFFSET -6.676277 -0.344902 -1.011730
								CHANNELS 3 Xrotation Yrotation Zrotation
								End Site
								{
									OFFSET 0.000000 14.885353 0.000000
								}
							}
						}
					}
				}
				JOINT Backpack
				{
					OFFSET 0.000000 -2.471497 36.677502
					CHANNELS 3 Xrotation Yrotation Zrotation
					End Site
					{
						OFFSET 0.000000 20.427315 0.000000
					}
				}
				JOINT Hood
				{
					OFFSET 0.000000 18.754097 -10.431000
					CHANNELS 3 Xrotation Yrotation Zrotation
					JOINT Hood1
					{
						OFFSET 0.000000 -5.011002 -7.685901
						CHANNELS 3 Xrotation Yrotation Zrotation
						End Site
						{
							OFFSET 0.000000 9.175140 0.000000
						}
					}
				}
				JOINT LHoodieString
				{
					OFFSET 5.250500 16.397697 3.089900
					CHANNELS 3 Xrotation Yrotation Zrotation
					JOINT LHoodieString1
					{
						OFFSET 0.257700 -6.364304 3.694600
						CHANNELS 3 Xrotation Yrotation Zrotation
						JOINT LHoodieString2
						{
							OFFSET 0.000000 -9.643799 2.679100
							CHANNELS 3 Xrotation Yrotation Zrotation
							End Site
							{
								OFFSET 0.000000 10.009018 0.000000
							}
						}
					}
				}
				JOINT RHoodieString
				{
					OFFSET -5.250500 16.397697 3.089900
					CHANNELS 3 Xrotation Yrotation Zrotation
					JOINT RHoodieString1
					{
						OFFSET -0.257700 -6.364304 3.694600
						CHANNELS 3 Xrotation Yrotation Zrotation
						JOINT RHoodieString2
						{
							OFFSET 0.000000 -9.643799 2.679100
							CHANNELS 3 Xrotation Yrotation Zrotation
							End Site
							{
								OFFSET 0.000000 10.009018 0.000000
							}
						}
					}
				}
			}
			JOINT LBackpack_Strap
			{
				OFFSET 15.223200 -7.719803 -6.610900
				CHANNELS 3 Xrotation Yrotation Zrotation
				End Site
				{
					OFFSET 0.000000 16.040596 0.000000
				}
			}
			JOINT RBackpack_Strap
			{
				OFFSET -15.223000 -7.719803 -6.610900
				CHANNELS 3 Xrotation Yrotation Zrotation
				End Site
				{
					OFFSET 0.000000 16.040596 0.000000
				}
			}
		}
	}
	JOINT BoyFacialAnim_Joint
	{
		OFFSET 1.000000 -82.208099 -1.550900
		CHANNELS 3 Xrotation Yrotation Zrotation
		End Site
		{
			OFFSET 0.000000 30.012791 0.000000
		}
	}
}
MOTION
Frames: 4
Frame Time: 0.016667
-0.117499 77.930824 -0.094521 -10.815716 -54.564643 -6.940680 0.000000 0.000001 -0.000000 -23.198195 12.760841 16.215033 28.452683 14.707921 0.104432 3.626431 0.177457 -9.270068 0.000000 -0.000000 0.000000 0.000000 -0.000000 0.000000 -0.000000 -0.000001 -0.000001 -21.329289 -18.551132 -21.926949 37.740241 -3.753560 -3.234171 -11.865762 1.512288 11.239789 0.000000 0.000000 0.000000 0.000000 0.000000 0.000000 -0.000000 -0.000000 -0.000001 5.268720 0.479861 0.567787 4.893950 1.120468 0.299610 8.444754 1.036551 0.033106 2.537413 5.572982 -0.185906 2.372536 37.187190 -7.338936 -0.000001 -0.000001 0.000001 -0.000001 -0.000001 0.000001 -0.000001 -0.000001 0.000001 9.150563 -24.592603 -2.246835 -26.053178 8.217170 -60.618803 -91.270158 13.114580 -86.117156 -27.757945 -7.625886 -6.300480 0.699124 9.503389 -2.418117 5.975207 12.647539 1.348335 -0.000001 -0.000001 -0.000001 9.479721 -1.289771 -20.785563 0.709481 2.796416 -28.467084 -0.000002 0.000002 -0.000005 10.058168 -1.800577 -20.644710 1.774273 4.200487 -45.782065 0.000002 0.000000 0.000000 1.254225 -0.073706 -17.945776 3.754092 5.463636 -68.965294 0.000001 -0.000003 -0.000001 -7.938250 1.609104 -6.495665 2.210567 4.583649 -51.475154 0.000001 0.000002 0.000000 0.000000 0.000002 -0.000000 10.411183 20.330615 -1.369221 3.446557 33.597031 47.887853 68.289789 116.117451 -81.856252 -10.139677 21.397002 14.282916 13.942504 -4.273688 -5.300352 7.113166 -20.767438 -2.619501 -0.000000 -0.000000 -0.000000 0.357762 -5.832699 5.175844 0.094359 -0.933665 11.539900 -0.000000 -0.000002 0.000005 3.764071 -12.080465 1.143783 5.714283 -4.535868 103.133555 -0.000001 0.000000 0.000002 -12.155585 -12.623928 9.228360 6.566861 -4.248475 114.232332 -0.000001 -0.000001 0.000002 -17.635752 -10.496880 3.325424 4.993652 -4.645050 94.147935 0.000000 -0.000001 0.000000 0.000000 0.000000 -0.000001 -0.000001 -0.000001 0.000001 -0.000001 -0.000001 0.000001 -0.000001 -0.000001 0.000001 -0.000001 -0.000001 0.000001 -0.000001 -0.000001 -0.000000 -0.000001 -0.000003 0.000000 -0.000001 -0.000001 0.000001 -0.000001 -0.000001 -0.000000 -0.000001 -0.000003 0.000000 -0.000000 0.000004 -0.000001 -0.000000 0.000004 -0.000001 0.000000 0.000001 -0.000000 
-0.076985 77.858032 0.389730 -10.379070 -53.143626 -6.505180 0.000000 -0.000002 -0.000000 -23.909451 12.686486 15.872624 29.515730 13.465508 -0.169022 2.838035 0.172764 -8.647678 -0.000000 -0.000000 0.000000 -0.000000 -0.000000 0.000000 -0.000000 -0.000002 0.000000 -21.139343 -16.863423 -22.180421 39.279691 -5.614061 -1.843215 -12.375834 1.735611 9.503708 0.000000 -0.000001 -0.000000 0.000000 -0.000001 -0.000000 -0.000000 0.000000 0.000000 5.213675 0.395118 0.697301 4.881396 0.959830 0.315642 8.443273 1.126759 0.051352 2.560041 5.635932 -0.196398 2.510869 38.008087 -7.338064 0.000000 -0.000000 -0.000000 0.000000 -0.000000 -0.000000 0.000000 -0.000000 -0.000000 8.936016 -24.743219 -2.968064 -26.604862 8.959836 -60.009796 -91.306037 12.800227 -85.897641 -27.851659 -7.038019 -5.777693 0.699123 9.503385 -2.418118 5.975204 12.647542 1.348335 0.000002 0.000000 0.000000 9.479718 -1.289776 -20.785562 0.709478 2.796419 -28.467086 -0.000000 0.000000 -0.000000 10.058168 -1.800576 -20.644708 1.774273 4.200486 -45.782061 0.000004 -0.000001 -0.000004 1.254224 -0.073704 -17.945774 3.754093 5.463635 -68.965301 -0.000002 0.000001 -0.000002 -7.938247 1.609110 -6.495664 2.210563 4.583645 -51.475157 0.000001 -0.000003 -0.000002 0.000000 -0.000001 0.000000 10.571304 20.013219 -2.157003 3.272274 35.427536 47.123978 70.645937 116.398909 -84.504282 -10.445470 22.183739 13.476847 13.942502 -4.273688 -5.300351 7.113165 -20.767438 -2.619503 0.000000 -0.000001 -0.000001 0.357762 -5.832699 5.175843 0.094359 -0.933666 11.539898 -0.000000 0.000000 0.000002 3.764069 -12.080464 1.143781 5.714283 -4.535868 103.133562 -0.000000 0.000001 -0.000002 -12.155587 -12.623929 9.228360 6.566859 -4.248474 114.232332 -0.000000 0.000002 0.000004 -17.635758 -10.496880 3.325423 4.993649 -4.645052 94.147935 -0.000001 -0.000001 0.000000 -0.000000 -0.000001 -0.000001 -0.000000 0.000001 0.000000 -0.000000 0.000001 0.000000 -0.000000 0.000001 0.000000 -0.000000 0.000001 0.000000 -0.000000 0.000001 0.000000 -0.000000 -0.000001 0.000000 -0.000000 0.000001 0.000000 -0.000000 0.000001 0.000000 -0.000000 -0.000001 0.000000 0.000000 0.000003 -0.000000 0.000000 0.000003 -0.000000 0.000000 -0.000002 -0.000000 
0.011800 77.693443 0.878739 -9.969849 -51.721806 -6.069769 0.000000 0.000002 0.000000 -24.845778 12.557263 15.567857 31.034501 12.246400 -0.530145 1.855085 0.144158 -7.974175 -0.000000 -0.000002 0.000000 -0.000000 -0.000002 0.000000 -0.000000 -0.000001 0.000001 -22.260847 -14.319183 -22.621462 42.668240 -7.175363 -1.157602 -10.587363 1.646148 9.114756 -0.000000 0.000000 -0.000000 -0.000000 0.000000 -0.000000 0.000000 0.000000 -0.000001 5.203116 0.375716 0.708244 4.875918 0.893835 0.313337 8.471695 1.741697 0.006405 2.611686 5.795503 -0.175231 2.871614 40.218503 -7.339839 0.000001 0.000000 0.000000 0.000001 0.000000 0.000000 0.000001 0.000000 0.000000 8.936020 -24.743318 -2.968062 -27.022573 9.098570 -59.788730 -91.418127 12.788623 -85.389741 -28.033248 -6.726862 -5.796755 0.699123 9.503383 -2.418117 5.975207 12.647542 1.348334 -0.000001 -0.000001 -0.000000 9.479719 -1.289778 -20.785565 0.709478 2.796418 -28.467084 0.000001 -0.000001 -0.000005 10.058169 -1.800580 -20.644710 1.774273 4.200481 -45.782065 -0.000001 -0.000000 -0.000002 1.254225 -0.073708 -17.945772 3.754097 5.463633 -68.965301 -0.000000 0.000001 -0.000000 -7.938249 1.609104 -6.495664 2.210565 4.583654 -51.475157 0.000001 -0.000003 -0.000004 -0.000000 0.000000 0.000000 10.565200 19.946538 -2.142260 2.607387 35.855157 47.333559 71.764634 116.208401 -85.770954 -10.570402 21.998955 13.615186 13.942500 -4.273691 -5.300351 7.113165 -20.767438 -2.619501 -0.000000 -0.000000 -0.000000 0.357762 -5.832699 5.175840 0.094360 -0.933669 11.539903 -0.000000 0.000000 0.000002 3.764070 -12.080463 1.143780 5.714283 -4.535867 103.133562 -0.000000 0.000000 -0.000002 -12.155585 -12.623928 9.228357 6.566857 -4.248475 114.232332 -0.000001 0.000000 0.000000 -17.635755 -10.496879 3.325423 4.993650 -4.645054 94.147942 -0.000000 -0.000001 0.000000 -0.000000 0.000000 0.000000 -0.000000 0.000004 -0.000000 -0.000000 0.000004 -0.000000 -0.000000 0.000004 -0.000000 -0.000000 0.000004 -0.000000 -0.000000 0.000004 -0.000001 0.000001 -0.000001 -0.000000 -0.000000 0.000004 -0.000000 -0.000000 0.000004 -0.000001 0.000001 -0.000001 -0.000000 0.000000 -0.000000 0.000000 0.000000 -0.000000 0.000000 0.000000 0.000002 0.000000 
0.121894 77.489868 1.390385 -9.584893 -50.297079 -5.656610 0.000000 -0.000000 0.000000 -25.836620 12.417464 15.291680 32.705340 11.034370 -0.972828 0.796187 0.091097 -7.223440 0.000000 -0.000002 0.000000 0.000000 -0.000002 0.000000 0.000000 0.000000 0.000001 -23.398929 -11.457357 -22.652611 46.060917 -8.567088 -0.748337 -8.286057 1.372900 8.980193 0.000000 0.000001 0.000000 0.000000 0.000001 0.000000 0.000000 0.000000 0.000001 5.201872 0.361827 0.680381 4.870109 0.829825 0.304667 8.520204 2.710895 -0.072872 2.689529 6.030632 -0.142776 3.412320 43.413943 -7.365480 0.000001 0.000000 -0.000000 0.000001 0.000000 -0.000000 0.000001 0.000000 -0.000000 8.936042 -24.743298 -2.968062 -27.403877 9.241068 -59.623057 -91.512828 12.777842 -84.960532 -28.164046 -6.454046 -5.810561 0.699123 9.503388 -2.418115 5.975207 12.647542 1.348335 -0.000000 -0.000001 -0.000001 9.479719 -1.289775 -20.785560 0.709481 2.796416 -28.467088 0.000002 -0.000001 -0.000004 10.058169 -1.800574 -20.644706 1.774272 4.200488 -45.782058 0.000003 0.000001 -0.000003 1.254222 -0.073706 -17.945769 3.754091 5.463638 -68.965294 0.000001 0.000001 -0.000004 -7.938250 1.609112 -6.495662 2.210566 4.583650 -51.475154 -0.000000 -0.000004 0.000001 0.000000 0.000004 -0.000000 10.560326 19.868219 -2.125414 2.003535 36.236107 47.517141 72.763610 116.049722 -86.902519 -10.678815 21.824898 13.770443 13.942504 -4.273689 -5.300353 7.113165 -20.767438 -2.619502 -0.000001 0.000001 -0.000000 0.357763 -5.832699 5.175841 0.094358 -0.933668 11.539900 0.000000 0.000001 0.000004 3.764072 -12.080465 1.143778 5.714282 -4.535867 103.133562 -0.000000 0.000001 -0.000002 -12.155588 -12.623930 9.228358 6.566858 -4.248474 114.232339 -0.000001 -0.000001 0.000000 -17.635758 -10.496877 3.325419 4.993652 -4.645050 94.147935 -0.000000 -0.000000 0.000000 -0.000000 -0.000000 0.000000 0.000002 -0.000001 0.000000 0.000002 -0.000001 0.000000 0.000002 -0.000001 0.000000 0.000002 -0.000001 0.000000 0.000002 -0.000001 -0.000000 0.000001 -0.000000 0.000000 0.000002 -0.000001 0.000000 0.000002 -0.000001 -0.000000 0.000001 -0.000000 0.000000 0.000000 0.000004 -0.000000 0.000000 0.000004 -0.000000 0.000000 -0.000000 0.000000 
